<svg xmlns="http://www.w3.org/2000/svg" viewBox="0 0 24 24" fill="none">
  <!-- Left vibration squiggles -->
  <path d="M 4 9.5 Q 3.5 9 3 9.5 Q 2.5 10 2 9.5" stroke="black" stroke-width="1.5" stroke-linecap="round"/>
  <path d="M 4 12 Q 3.5 11.5 3 12 Q 2.5 12.5 2 12" stroke="black" stroke-width="1.5" stroke-linecap="round"/>
  <path d="M 4 14.5 Q 3.5 14 3 14.5 Q 2.5 15 2 14.5" stroke="black" stroke-width="1.5" stroke-linecap="round"/>
  <!-- Right vibration squiggles -->
  <path d="M 20 9.5 Q 20.5 9 21 9.5 Q 21.5 10 22 9.5" stroke="black" stroke-width="1.5" stroke-linecap="round"/>
  <path d="M 20 12 Q 20.5 11.5 21 12 Q 21.5 12.5 22 12" stroke="black" stroke-width="1.5" stroke-linecap="round"/>
  <path d="M 20 14.5 Q 20.5 14 21 14.5 Q 21.5 15 22 14.5" stroke="black" stroke-width="1.5" stroke-linecap="round"/>
  <!-- Steering wheel rim -->
  <circle cx="12" cy="12" r="5.5" stroke="black" stroke-width="2"/>
  <!-- Spokes at 12, 4, 8 o'clock -->
  <line x1="12" y1="10.5" x2="12" y2="6.5" stroke="black" stroke-width="1.8" stroke-linecap="round"/>
  <line x1="13.2" y1="12.75" x2="16.77" y2="14.75" stroke="black" stroke-width="1.8" stroke-linecap="round"/>
  <line x1="10.8" y1="12.75" x2="7.23" y2="14.75" stroke="black" stroke-width="1.8" stroke-linecap="round"/>
  <!-- Hub -->
  <circle cx="12" cy="12" r="1.5" fill="black"/>
</svg>
